{"title":"Restaurant.Impossible.S08E11","uid":10306763,"size":753948979,"categoryP":"video","categoryS":"tv_shows","magnet":"?xt=urn:btih:093d2c100718ce2edfb5f424c4d157a916b5b630&amp;dn=Restaurant.Impossible.S08E11&amp;tr=udp%3A%2F%2Ftracker.openbittorrent.com%3A80&amp;tr=udp%3A%2F%2Fopen.demonii.com%3A1337&amp;tr=udp%3A%2F%2Ftracker.coppersurfer.tk%3A6969&amp;tr=udp%3A%2F%2Fexodus.desync.com%3A6969","seeders":6,"leechers":0,"uploader":"azybuzza","files":1,"time":1402141859,"description":"\nSource:\n\nRestaurant.Impossible.S08E11.1080p.WEB-DL.AAC2.0.h264-SCD.mkv\n\n\nRe-encoded into:\n\nRestaurant.Impossible.S08E11.re-encoded.from.1080p.WEB-DL.AAC2.0.h264-SCD.mp4\n\n\n\nSo the original file was too big for me to upload and I couldn't watch it on my oooold computer. I re-encoded it using MkvToMp4 0.224 and made it 1024x576, so I could watch it. Since the episode hasn't been uploaded by anyone else, I thought I might as well share this one.\n\n\n\nFormat                                   : MPEG-4\nFormat profile                           : Base Media\nCodec ID                                 : isom\nFile size                                : 719 MiB\nDuration                                 : 42mn 8s\nOverall bit rate                         : 2 386 Kbps\nPart/Position                            : 8\nPart/Total                               : 0\nTrack name/Position                      : 11\nTrack name/Total                         : 0\nEncoded date                             : UTC 2014-06-04 22:53:41\nTagged date                              : UTC 2014-06-04 22:59:09\nWriting application                      : MkvToMp4 [www.mkvtomp4.ru] version: 0.224 (x32)\ntvsh                                     : Restaurant Impossible\ntvsn                                     : 8\ntves                                     : 11\nsosn                                     : Restaurant Impossible\nhdvd                                     : 2\nstik                                     : 10\n\nVideo\nID                                       : 1\nFormat                                   : AVC\nFormat/Info                              : Advanced Video Codec\nFormat profile                           : &lt;a class=&quot;__cf_email__&quot; href=&quot;/cdn-cgi/l/email-protection&quot; data-cfemail=&quot;cd85a4aaa58d81f9e3fc&quot;&gt;[email&amp;#160;protected]&lt;/a&gt;&lt;script cf-hash='f9e31' type=&quot;text/javascript&quot;&gt;\n/* &lt;![CDATA[ */!function(){try{var t=&quot;currentScript&quot;in document?document.currentScript:function(){for(var t=document.getElementsByTagName(&quot;script&quot;),e=t.length;e--;)if(t[e].getAttribute(&quot;cf-hash&quot;))return t[e]}();if(t&amp;&amp;t.previousSibling){var e,r,n,i,c=t.previousSibling,a=c.getAttribute(&quot;data-cfemail&quot;);if(a){for(e=&quot;&quot;,r=parseInt(a.substr(0,2),16),n=2;a.length-n;n+=2)i=parseInt(a.substr(n,2),16)^r,e+=String.fromCharCode(i);e=document.createTextNode(e),c.parentNode.replaceChild(e,c)}}}catch(u){}}();/* ]]&gt; */&lt;/script&gt;\nFormat settings, CABAC                   : Yes\nFormat settings, ReFrames                : 4 frames\nCodec ID                                 : avc1\nCodec ID/Info                            : Advanced Video Coding\nDuration                                 : 42mn 8s\nBit rate                                 : 2 222 Kbps\nMaximum bit rate                         : 10.9 Mbps\nWidth                                    : 1 024 pixels\nHeight                                   : 576 pixels\nDisplay aspect ratio                     : 16:9\nOriginal display aspect ratio            : 16:9\nFrame rate mode                          : Constant\nFrame rate                               : 23.976 fps\nColor space                              : YUV\nChroma subsampling                       : 4:2:0\nBit depth                                : 8 bits\nScan type                                : Progressive\nBits/(Pixel*Frame)                       : 0.157\nStream size                              : 670 MiB (93%)\nWriting library                          : x264 core 133 r2334 a3ac64b\nEncoding settings                        : cabac=1 / ref=1 / deblock=1:0:0 / analyse=0x3:0x3 / me=dia / subme=1 / psy=1 / psy_rd=1.00:0.00 / mixed_ref=0 / me_range=16 / chroma_me=1 / trellis=0 / 8x8dct=1 / cqm=0 / deadzone=21,11 / fast_pskip=1 / chroma_qp_offset=0 / threads=1 / lookahead_threads=1 / sliced_threads=0 / nr=0 / decimate=1 / interlaced=0 / bluray_compat=0 / constrained_intra=0 / bframes=3 / b_pyramid=2 / b_adapt=1 / b_bias=0 / direct=1 / weightb=1 / open_gop=0 / weightp=1 / keyint=250 / keyint_min=23 / scenecut=40 / intra_refresh=0 / rc=crf / mbtree=0 / crf=20.0 / qcomp=0.60 / qpmin=0 / qpmax=69 / qpstep=4 / ip_ratio=1.40 / pb_ratio=1.30 / aq=1:1.00\nLanguage                                 : English\nEncoded date                             : UTC 2014-06-04 22:53:41\nTagged date                              : UTC 2014-06-04 22:56:32\n\nAudio\nID                                       : 2\nFormat                                   : AAC\nFormat/Info                              : Advanced Audio Codec\nFormat profile                           : LC\nCodec ID                                 : 40\nDuration                                 : 42mn 8s\nBit rate mode                            : Variable\nBit rate                                 : 156 Kbps\nMaximum bit rate                         : 258 Kbps\nChannel(s)                               : 2 channels\nChannel positions                        : Front: L R\nSampling rate                            : 48.0 KHz\nCompression mode                         : Lossy\nStream size                              : 46.9 MiB (7%)\nLanguage                                 : English\nEncoded date                             : UTC 2014-06-04 22:56:16\nTagged date                              : UTC 2014-06-04 22:56:32\n\n\n\n","torrent":{"xt":"urn:btih:093d2c100718ce2edfb5f424c4d157a916b5b630","amp;dn":"Restaurant.Impossible.S08E11","amp;tr":["udp%3A%2F%2Ftracker.openbittorrent.com%3A80","udp%3A%2F%2Fopen.demonii.com%3A1337","udp%3A%2F%2Ftracker.coppersurfer.tk%3A6969","udp%3A%2F%2Fexodus.desync.com%3A6969"],"infoHash":"093d2c100718ce2edfb5f424c4d157a916b5b630","infoHashBuffer":{"type":"Buffer","data":[9,61,44,16,7,24,206,46,223,181,244,36,196,209,87,169,22,181,182,48]},"announce":[],"urlList":[]}}